# xmcd
# Track frame offsets:
# 150
# 23158
# 44178
# 67122
# 85578
# 102924
# 121634
# 141000
# 159607
# 173330
# 194317
# 210239
# 231549
# 245750
# 266333
# 279196
# 298589
#
# Disc length: 4278 seconds
# Revision: 0
# Processed by: cddbd v1.5.2PL0 Copyright (c) Steve Scherf et al.
# Submitted via: VisiTrax 2.10.3.257 - For more info visit www.synapsa.com
#
DISCID=ed10b411
DTITLE=Jackson, Alan - Good Time
DYEAR=2008
DGENRE=Country
TTITLE0=Jackson, Alan - Good Time
TTITLE1=Jackson, Alan - Small Town Southern Man
TTITLE2=Jackson, Alan - I Wish I Could Back Up
TTITLE3=Jackson, Alan - Country Boy
TTITLE4=Jackson, Alan - Right Where I Want You
TTITLE5=Jackson, Alan - 1976
TTITLE6=Jackson, Alan - When The Love Factor's High
TTITLE7=Jackson, Alan - Long Long Way
TTITLE8=Jackson, Alan - Sissy's Song
TTITLE9=Jackson, Alan - I Still Like Bologna
TTITLE10=Jackson, Alan  Featuring Martina McBride - Never Loved Before
TTITLE11=Jackson, Alan - Nothing Left To Do
TTITLE12=Jackson, Alan - Listen To Your Senses
TTITLE13=Jackson, Alan - This Time
TTITLE14=Jackson, Alan - Laid Back 'n Low Key (Cay)
TTITLE15=Jackson, Alan - If You Want To Make Me Happy
TTITLE16=Jackson, Alan - If Jesus Walked The World Today
EXTD=
EXTT0=
EXTT1=
EXTT2=
EXTT3=
EXTT4=
EXTT5=
EXTT6=
EXTT7=
EXTT8=
EXTT9=
EXTT10=
EXTT11=
EXTT12=
EXTT13=
EXTT14=
EXTT15=
EXTT16=
PLAYORDER=
